# xmcd
#
# Track frame offsets:
# 150
# 16333
# 30855
# 48326
# 56363
# 70123
# 78454
# 101565
# 117837
# 129910
# 141362
# 154652
# 166517
# 191041
# 208727
# 224664
#
# Disc length: 3184 seconds
#
#
# Revision: 0
# Processed by: cddbd v1.5.1PL2 Copyright (c) Steve Scherf et al.
# Submitted via: FreeRIP 2.943 
#
DISCID=d40c6e10
DTITLE=Ricky Sklaggs  cd 2 - Country Gentleman cd 2
DYEAR=1998
DGENRE=Country
TTITLE0=Love's Gonna Get You Someday
TTITLE1=I Wonder If I Care As Much
TTITLE2=Lobe Can´t Ever Get Better Than This
TTITLE3=I`m Tired
TTITLE4=That's Why I'm Walkin'
TTITLE5=Thanks  Again
TTITLE6=Old  Kind Of Love
TTITLE7=Lovin' Only Me
TTITLE8=Let It Be You
TTITLE9=Heartbreak Hurricane
TTITLE10=Hummingbird
TTITLE11=He Was On To Something
TTITLE12=Restless
TTITLE13=Life's Too Long
TTITLE14=Same Ol' love
TTITLE15=From The Word Love
EXTD=
EXTT0=
EXTT1=
EXTT2=
EXTT3=
EXTT4=
EXTT5=
EXTT6=
EXTT7=
EXTT8=
EXTT9=
EXTT10=
EXTT11=
EXTT12=
EXTT13=
EXTT14=
EXTT15=
PLAYORDER=
